<svg width="58" height="60" viewBox="0 0 58 60" fill="none" xmlns="http://www.w3.org/2000/svg">
<g clip-path="url(#clip0_1_9301)">
<circle cx="28.7096" cy="30.7691" r="28.7096" fill="#D9D9D9"/>
<circle cx="28.7096" cy="30.7691" r="27.6204" stroke="#33731D" stroke-width="2.17827"/>
<path d="M40.3348 5.16738L51.5436 12.2798L41.4757 28.1463L30.2669 21.0339L35.2552 12.7478L40.3348 5.16738Z" fill="white"/>
<ellipse cx="47.4388" cy="6.31457" rx="5.27867" ry="5.41662" fill="white"/>
<ellipse cx="52.4311" cy="12.893" rx="4.98823" ry="4.76314" fill="#838383"/>
<ellipse cx="52.7215" cy="11.7316" rx="5.27867" ry="5.41662" fill="white"/>
<ellipse cx="38.4901" cy="5.93713" rx="5.27867" ry="5.41662" fill="white"/>
<path fill-rule="evenodd" clip-rule="evenodd" d="M41.4288 56.515C37.5951 58.4127 33.2769 59.4792 28.7095 59.4792C23.0013 59.4792 17.6823 57.8133 13.2119 54.9412C16.5564 50.8656 22.6617 48.1377 29.639 48.1377C36.4753 48.1377 39.8779 51.8224 41.4288 56.515Z" fill="#33731D"/>
<path fill-rule="evenodd" clip-rule="evenodd" d="M35.1261 58.7592C33.063 59.2302 30.9153 59.479 28.7095 59.479C24.2269 59.479 19.9842 58.4516 16.2041 56.6196C18.1051 53.8898 21.3799 52.0874 25.1009 52.0874C29.7253 52.0874 33.6605 54.8712 35.1261 58.7592Z" fill="#488831"/>
<path d="M31.8753 19.8048C31.8753 21.8824 29.7208 23.5666 27.0631 23.5666C24.4053 23.5666 10.9694 22.0468 12.9662 21.4733C19.6091 19.5654 23.5711 15.9658 26.2288 15.9658C28.8866 15.9658 31.8753 17.7273 31.8753 19.8048Z" fill="#265E13"/>
<path fill-rule="evenodd" clip-rule="evenodd" d="M26.3401 20.4448C28.502 19.5323 30.3186 18.4716 31.8625 17.5702C33.8246 16.4246 35.3463 15.5361 36.5762 15.5361C38.8466 15.5361 41.3694 17.0178 41.8867 18.8963C47.2067 19.69 50.2018 22.3603 50.2018 28.8599C50.2018 32.6047 47.4827 36.7223 44.8218 40.7517C41.7471 45.4079 38.7501 49.9463 40.1164 53.6558C40.99 59.4518 37.0451 56.3023 32.5542 50.4454C31.7629 50.477 30.902 50.4901 29.9656 50.4901C19.76 50.4901 5.14062 39.7045 5.14062 29.4988C5.14062 21.2894 11.0792 19.0708 15.3146 19.6168C15.8448 19.6156 16.6031 19.7864 17.5332 19.9959C19.0006 20.3264 20.8958 20.7532 22.9977 20.7532C24.1721 20.7532 25.3024 20.62 26.3401 20.4448ZM23.0133 23.5643L23.0135 23.5643L23.0134 23.5643L23.0133 23.5643Z" fill="#33731D"/>
<ellipse cx="35.0729" cy="27.6772" rx="3.234" ry="4.48624" transform="rotate(28.8756 35.0729 27.6772)" fill="black"/>
<ellipse cx="8.89105" cy="27.5042" rx="0.631697" ry="0.907611" transform="rotate(18.7159 8.89105 27.5042)" fill="black"/>
<ellipse cx="17.5766" cy="29.209" rx="0.45128" ry="0.968256" transform="rotate(30.1468 17.5766 29.209)" fill="black"/>
<path d="M7.24363 35.7928L6.32604 34.6795L7.53377 34.3796L7.24363 35.7928Z" fill="#D9D9D9"/>
<path d="M24.5147 40.497L24.315 39.3922L25.249 39.6478L24.5147 40.497Z" fill="#D9D9D9"/>
<path d="M20.3202 38.9087L20.7413 37.5934L21.4494 38.1136L20.3202 38.9087Z" fill="#D9D9D9"/>
<path d="M20.6645 37.2171C19.558 36.2768 20.683 37.1938 19.5931 36.2532C18.5033 35.3126 19.5931 36.2532 18.5095 35.2951C19.7777 33.8257 23.6257 30.9016 24.7155 31.8422C26.1538 33.6956 21.5939 33.1728 20.6645 37.2171Z" fill="#B38B8D"/>
<path d="M19.2922 36.041L20.5356 34.8391C21.4436 33.9613 22.4845 33.2324 23.6197 32.6792V32.6792" stroke="#75585A" stroke-width="0.290436"/>
<ellipse cx="23.6051" cy="32.6862" rx="0.152479" ry="0.145218" fill="#75585A"/>
<path d="M6.28563 34.5845L9.8844 33.7736C13.4718 32.9652 17.2242 34.0351 19.8458 36.6139V36.6139C22.3114 39.0392 25.7883 40.139 29.2001 39.5729L31.1636 39.2471" stroke="black" stroke-width="0.290436"/>
<path fill-rule="evenodd" clip-rule="evenodd" d="M46.4617 20.4219C46.2987 23.3784 44.2786 25.7928 41.6484 26.3133C42.0963 26.3815 42.5612 26.4174 43.0381 26.4174C45.8471 26.4174 48.2417 25.172 49.1622 23.425C48.5329 22.1273 47.6256 21.147 46.4617 20.4219Z" fill="#4B9B30"/>
<path fill-rule="evenodd" clip-rule="evenodd" d="M49.4609 32.5454C48.8558 34.1845 47.9329 35.8627 46.8928 37.5468C46.0438 37.2141 45.2886 36.8059 44.6603 36.3344C43.364 35.3616 42.6836 34.1768 42.7223 32.9665C43.5742 33.2332 44.5385 33.3835 45.5598 33.3835C47.0347 33.3835 48.3905 33.07 49.4609 32.5454Z" fill="#4B9B30"/>
<path fill-rule="evenodd" clip-rule="evenodd" d="M42.3374 44.6434C41.6283 45.8381 41.0084 47.0108 40.5563 48.1484C37.5598 47.3872 35.3551 45.4182 35.0701 43.0537C36.5273 43.9565 39.4763 44.6451 42.1109 44.6451C42.1871 44.6451 42.2626 44.6445 42.3374 44.6434Z" fill="#4B9B30"/>
<path d="M37.8509 38.2115C37.8509 39.4587 37.1744 39.8307 35.9994 39.8307C34.8244 39.8307 33.7195 39.7273 33.7195 38.4802C33.7195 37.2331 34.8244 35.3145 35.9994 35.3145C37.1744 35.3145 37.8509 36.9644 37.8509 38.2115Z" fill="#303030"/>
<path d="M40.8002 34.4928C40.8002 35.3831 40.3173 35.6486 39.4785 35.6486C38.6398 35.6486 37.8511 35.5748 37.8511 34.6846C37.8511 33.7944 38.6398 32.4248 39.4785 32.4248C40.3173 32.4248 40.8002 33.6026 40.8002 34.4928Z" fill="#303030"/>
<path fill-rule="evenodd" clip-rule="evenodd" d="M42.9889 8.77551C42.024 9.85365 40.6389 10.5294 39.1 10.5294C36.1846 10.5294 33.8213 8.10431 33.8213 5.1128C33.8213 4.07345 34.1066 3.10248 34.6012 2.27783C33.7382 3.24209 33.2114 4.52819 33.2114 5.94055C33.2114 8.93206 35.5748 11.3572 38.4901 11.3572C40.3926 11.3572 42.0599 10.3244 42.9889 8.77551Z" fill="#838383"/>
</g>
<defs>
<clipPath id="clip0_1_9301">
<rect width="58" height="58.9584" fill="white" transform="translate(0 0.520508)"/>
</clipPath>
</defs>
</svg>
