<svg width="185" height="68" viewBox="0 0 185 68" fill="none" xmlns="http://www.w3.org/2000/svg">
<g clip-path="url(#clip0_1_9300)">
<circle cx="28.7096" cy="34.7691" r="28.7096" fill="#D9D9D9"/>
<circle cx="28.7096" cy="34.7691" r="27.6204" stroke="#33731D" stroke-width="2.17827"/>
<path d="M40.3348 9.16738L51.5436 16.2798L41.4757 32.1463L30.2669 25.0339L35.2552 16.7478L40.3348 9.16738Z" fill="white"/>
<ellipse cx="47.4388" cy="10.3146" rx="5.27867" ry="5.41662" fill="white"/>
<ellipse cx="52.4311" cy="16.893" rx="4.98823" ry="4.76314" fill="#838383"/>
<ellipse cx="52.7215" cy="15.7316" rx="5.27867" ry="5.41662" fill="white"/>
<ellipse cx="38.4901" cy="9.93713" rx="5.27867" ry="5.41662" fill="white"/>
<path fill-rule="evenodd" clip-rule="evenodd" d="M41.4288 60.515C37.5951 62.4127 33.2769 63.4792 28.7095 63.4792C23.0013 63.4792 17.6823 61.8133 13.2119 58.9412C16.5564 54.8656 22.6617 52.1377 29.639 52.1377C36.4753 52.1377 39.8779 55.8224 41.4288 60.515Z" fill="#33731D"/>
<path fill-rule="evenodd" clip-rule="evenodd" d="M35.1261 62.7592C33.063 63.2302 30.9153 63.479 28.7095 63.479C24.2269 63.479 19.9842 62.4516 16.2041 60.6196C18.1051 57.8898 21.3799 56.0874 25.1009 56.0874C29.7253 56.0874 33.6605 58.8712 35.1261 62.7592Z" fill="#488831"/>
<path d="M31.8753 23.8048C31.8753 25.8824 29.7208 27.5666 27.0631 27.5666C24.4053 27.5666 10.9694 26.0468 12.9662 25.4733C19.6091 23.5654 23.5711 19.9658 26.2288 19.9658C28.8866 19.9658 31.8753 21.7273 31.8753 23.8048Z" fill="#265E13"/>
<path fill-rule="evenodd" clip-rule="evenodd" d="M26.3401 24.4448C28.502 23.5323 30.3186 22.4716 31.8625 21.5702C33.8246 20.4246 35.3463 19.5361 36.5762 19.5361C38.8466 19.5361 41.3694 21.0178 41.8867 22.8963C47.2067 23.69 50.2018 26.3603 50.2018 32.8599C50.2018 36.6047 47.4827 40.7223 44.8218 44.7517C41.7471 49.4079 38.7501 53.9463 40.1164 57.6558C40.99 63.4518 37.0451 60.3023 32.5542 54.4454C31.7629 54.477 30.902 54.4901 29.9656 54.4901C19.76 54.4901 5.14062 43.7045 5.14062 33.4988C5.14062 25.2894 11.0792 23.0708 15.3146 23.6168C15.8448 23.6156 16.6031 23.7864 17.5332 23.9959C19.0006 24.3264 20.8958 24.7532 22.9977 24.7532C24.1721 24.7532 25.3024 24.62 26.3401 24.4448ZM23.0133 27.5643L23.0135 27.5643L23.0134 27.5643L23.0133 27.5643Z" fill="#33731D"/>
<ellipse cx="35.0729" cy="31.6772" rx="3.234" ry="4.48624" transform="rotate(28.8756 35.0729 31.6772)" fill="black"/>
<ellipse cx="8.89105" cy="31.5042" rx="0.631697" ry="0.907611" transform="rotate(18.7159 8.89105 31.5042)" fill="black"/>
<ellipse cx="17.5766" cy="33.209" rx="0.45128" ry="0.968256" transform="rotate(30.1468 17.5766 33.209)" fill="black"/>
<path d="M7.24363 39.7928L6.32604 38.6795L7.53377 38.3796L7.24363 39.7928Z" fill="#D9D9D9"/>
<path d="M24.5147 44.497L24.315 43.3922L25.249 43.6478L24.5147 44.497Z" fill="#D9D9D9"/>
<path d="M20.3202 42.9087L20.7413 41.5934L21.4494 42.1136L20.3202 42.9087Z" fill="#D9D9D9"/>
<path d="M20.6645 41.2171C19.558 40.2768 20.683 41.1938 19.5931 40.2532C18.5033 39.3126 19.5931 40.2532 18.5095 39.2951C19.7777 37.8257 23.6257 34.9016 24.7155 35.8422C26.1538 37.6956 21.5939 37.1728 20.6645 41.2171Z" fill="#B38B8D"/>
<path d="M19.2922 40.041L20.5356 38.8391C21.4436 37.9613 22.4845 37.2324 23.6197 36.6792V36.6792" stroke="#75585A" stroke-width="0.290436"/>
<ellipse cx="23.6051" cy="36.6862" rx="0.152479" ry="0.145218" fill="#75585A"/>
<path d="M6.28563 38.5845L9.8844 37.7736C13.4718 36.9652 17.2242 38.0351 19.8458 40.6139V40.6139C22.3114 43.0392 25.7883 44.139 29.2001 43.5729L31.1636 43.2471" stroke="black" stroke-width="0.290436"/>
<path fill-rule="evenodd" clip-rule="evenodd" d="M46.4617 24.4219C46.2987 27.3784 44.2786 29.7928 41.6484 30.3133C42.0963 30.3815 42.5612 30.4174 43.0381 30.4174C45.8471 30.4174 48.2417 29.172 49.1622 27.425C48.5329 26.1273 47.6256 25.147 46.4617 24.4219Z" fill="#4B9B30"/>
<path fill-rule="evenodd" clip-rule="evenodd" d="M49.4609 36.5454C48.8558 38.1845 47.9329 39.8627 46.8928 41.5468C46.0438 41.2141 45.2886 40.8059 44.6603 40.3344C43.364 39.3616 42.6836 38.1768 42.7223 36.9665C43.5742 37.2332 44.5385 37.3835 45.5598 37.3835C47.0347 37.3835 48.3905 37.07 49.4609 36.5454Z" fill="#4B9B30"/>
<path fill-rule="evenodd" clip-rule="evenodd" d="M42.3374 48.6434C41.6283 49.8381 41.0084 51.0108 40.5563 52.1484C37.5598 51.3872 35.3551 49.4182 35.0701 47.0537C36.5273 47.9565 39.4763 48.6451 42.1109 48.6451C42.1871 48.6451 42.2626 48.6445 42.3374 48.6434Z" fill="#4B9B30"/>
<path d="M37.8509 42.2115C37.8509 43.4587 37.1744 43.8307 35.9994 43.8307C34.8244 43.8307 33.7195 43.7273 33.7195 42.4802C33.7195 41.2331 34.8244 39.3145 35.9994 39.3145C37.1744 39.3145 37.8509 40.9644 37.8509 42.2115Z" fill="#303030"/>
<path d="M40.8002 38.4928C40.8002 39.3831 40.3173 39.6486 39.4785 39.6486C38.6398 39.6486 37.8511 39.5748 37.8511 38.6846C37.8511 37.7944 38.6398 36.4248 39.4785 36.4248C40.3173 36.4248 40.8002 37.6026 40.8002 38.4928Z" fill="#303030"/>
<path fill-rule="evenodd" clip-rule="evenodd" d="M42.9889 12.7755C42.024 13.8536 40.6389 14.5294 39.1 14.5294C36.1846 14.5294 33.8213 12.1043 33.8213 9.1128C33.8213 8.07345 34.1066 7.10248 34.6012 6.27783C33.7382 7.24209 33.2114 8.52819 33.2114 9.94055C33.2114 12.9321 35.5748 15.3572 38.4901 15.3572C40.3926 15.3572 42.0599 14.3244 42.9889 12.7755Z" fill="#838383"/>
</g>
<path d="M89.59 41.1635C89.182 41.4355 88.6267 41.7415 87.924 42.0815C87.2213 42.4215 86.394 42.7048 85.442 42.9315C84.5127 43.1582 83.4927 43.2715 82.382 43.2715C80.478 43.2488 78.7553 42.9088 77.214 42.2515C75.6953 41.5942 74.4033 40.6988 73.338 39.5655C72.2727 38.4322 71.4453 37.1288 70.856 35.6555C70.2893 34.1595 70.006 32.5728 70.006 30.8955C70.006 29.0595 70.3007 27.3708 70.89 25.8295C71.502 24.2655 72.352 22.9168 73.44 21.7835C74.528 20.6275 75.8087 19.7322 77.282 19.0975C78.778 18.4628 80.41 18.1455 82.178 18.1455C83.6513 18.1455 84.9887 18.3495 86.19 18.7575C87.3913 19.1428 88.4227 19.6075 89.284 20.1515L87.958 23.2115C87.278 22.7582 86.4507 22.3275 85.476 21.9195C84.524 21.5115 83.4587 21.3075 82.28 21.3075C81.0787 21.3075 79.9453 21.5455 78.88 22.0215C77.8147 22.4975 76.874 23.1662 76.058 24.0275C75.242 24.8888 74.596 25.8975 74.12 27.0535C73.6667 28.1868 73.44 29.4108 73.44 30.7255C73.44 32.0628 73.644 33.3095 74.052 34.4655C74.4827 35.5988 75.0833 36.5848 75.854 37.4235C76.6473 38.2622 77.5993 38.9195 78.71 39.3955C79.8207 39.8715 81.0673 40.1095 82.45 40.1095C83.6967 40.1095 84.8073 39.9168 85.782 39.5315C86.7567 39.1462 87.5613 38.7155 88.196 38.2395L89.59 41.1635ZM100.889 43.3395C99.2801 43.3395 97.8974 43.0222 96.7414 42.3875C95.5854 41.7302 94.6901 40.8462 94.0554 39.7355C93.4434 38.6022 93.1374 37.3102 93.1374 35.8595C93.1374 34.4768 93.4888 33.2188 94.1914 32.0855C94.8941 30.9522 95.8348 30.0455 97.0134 29.3655C98.1921 28.6855 99.5068 28.3455 100.957 28.3455C102.816 28.3455 104.357 28.8895 105.581 29.9775C106.805 31.0655 107.633 32.5615 108.063 34.4655L96.4694 38.5455L95.7214 36.6755L105.241 33.2075L104.561 33.6495C104.289 32.9015 103.836 32.2555 103.201 31.7115C102.567 31.1448 101.739 30.8615 100.719 30.8615C99.8581 30.8615 99.0874 31.0768 98.4074 31.5075C97.7274 31.9155 97.1948 32.4822 96.8094 33.2075C96.4241 33.9328 96.2314 34.7602 96.2314 35.6895C96.2314 36.6642 96.4354 37.5255 96.8434 38.2735C97.2514 38.9988 97.8068 39.5768 98.5094 40.0075C99.2348 40.4155 100.051 40.6195 100.957 40.6195C101.569 40.6195 102.159 40.5062 102.725 40.2795C103.315 40.0528 103.859 39.7582 104.357 39.3955L105.819 41.7415C105.117 42.2175 104.323 42.6028 103.439 42.8975C102.578 43.1922 101.728 43.3395 100.889 43.3395ZM115.969 43.2715C114.972 43.2715 113.997 43.1015 113.045 42.7615C112.116 42.3988 111.345 41.8662 110.733 41.1635L112.059 39.3275C112.649 39.8942 113.249 40.3248 113.861 40.6195C114.496 40.8915 115.119 41.0275 115.731 41.0275C116.185 41.0275 116.604 40.9708 116.989 40.8575C117.375 40.7442 117.681 40.5628 117.907 40.3135C118.157 40.0415 118.281 39.6788 118.281 39.2255C118.281 38.7268 118.111 38.3302 117.771 38.0355C117.454 37.7408 117.035 37.5028 116.513 37.3215C116.015 37.1402 115.482 36.9702 114.915 36.8115C113.759 36.4262 112.875 35.8935 112.263 35.2135C111.651 34.5335 111.345 33.7062 111.345 32.7315C111.345 31.9835 111.527 31.2922 111.889 30.6575C112.275 30.0002 112.83 29.4675 113.555 29.0595C114.303 28.6515 115.221 28.4475 116.309 28.4475C117.284 28.4475 118.157 28.5722 118.927 28.8215C119.698 29.0482 120.423 29.4335 121.103 29.9775L119.845 31.9495C119.437 31.5188 118.95 31.2015 118.383 30.9975C117.817 30.7935 117.307 30.6802 116.853 30.6575C116.468 30.6348 116.094 30.6915 115.731 30.8275C115.391 30.9635 115.108 31.1562 114.881 31.4055C114.655 31.6548 114.541 31.9495 114.541 32.2895C114.541 32.7655 114.7 33.1508 115.017 33.4455C115.335 33.7402 115.743 33.9782 116.241 34.1595C116.763 34.3182 117.273 34.4882 117.771 34.6695C118.474 34.8735 119.097 35.1455 119.641 35.4855C120.185 35.8255 120.616 36.2448 120.933 36.7435C121.273 37.2422 121.443 37.8655 121.443 38.6135C121.443 39.4522 121.239 40.2342 120.831 40.9595C120.446 41.6622 119.845 42.2288 119.029 42.6595C118.236 43.0675 117.216 43.2715 115.969 43.2715ZM125.905 23.8235L124.307 23.0075C124.783 22.5542 125.157 21.9308 125.429 21.1375C125.724 20.3442 125.792 19.5508 125.633 18.7575L128.149 18.5195C128.285 19.1542 128.263 19.8228 128.081 20.5255C127.9 21.2055 127.617 21.8402 127.231 22.4295C126.846 23.0188 126.404 23.4835 125.905 23.8235Z" fill="white"/>
<path d="M132.793 18.2475H149.215V22.0555H136.771V28.6515H147.855V32.4935H136.771V39.1915H149.691V42.9995H132.793V18.2475ZM160.441 43.3735C159.081 43.3735 157.846 43.0902 156.735 42.5235C155.647 41.9568 154.786 41.1182 154.151 40.0075C153.517 38.8742 153.199 37.4802 153.199 35.8255C153.199 34.1935 153.528 32.7995 154.185 31.6435C154.865 30.4648 155.749 29.5582 156.837 28.9235C157.948 28.2888 159.149 27.9715 160.441 27.9715C161.824 27.9715 162.935 28.2435 163.773 28.7875C164.635 29.3315 165.303 29.9775 165.779 30.7255L165.575 31.2695L165.949 28.6175H169.451V42.9995H165.643V39.4975L166.017 40.4155C165.927 40.5515 165.745 40.7782 165.473 41.0955C165.201 41.3902 164.827 41.7188 164.351 42.0815C163.875 42.4442 163.309 42.7502 162.651 42.9995C162.017 43.2488 161.28 43.3735 160.441 43.3735ZM161.495 40.2455C162.175 40.2455 162.787 40.1208 163.331 39.8715C163.898 39.6222 164.374 39.2708 164.759 38.8175C165.167 38.3642 165.462 37.8202 165.643 37.1855V34.0575C165.462 33.4682 165.167 32.9582 164.759 32.5275C164.351 32.0742 163.853 31.7228 163.263 31.4735C162.697 31.2242 162.062 31.0995 161.359 31.0995C160.589 31.0995 159.875 31.2922 159.217 31.6775C158.56 32.0628 158.027 32.5955 157.619 33.2755C157.234 33.9555 157.041 34.7375 157.041 35.6215C157.041 36.4828 157.245 37.2648 157.653 37.9675C158.061 38.6702 158.605 39.2255 159.285 39.6335C159.965 40.0415 160.702 40.2455 161.495 40.2455ZM176.07 22.2935H179.912V28.6175H183.652V31.6095H179.912V42.9995H176.07V31.6095H173.622V28.6175H176.07V22.2935Z" fill="#33731D"/>
<defs>
<clipPath id="clip0_1_9300">
<rect width="58" height="58.9584" fill="white" transform="translate(0 4.52051)"/>
</clipPath>
</defs>
</svg>
